<?xml version="1.0" encoding="utf-8"?>
<svg xmlns="http://www.w3.org/2000/svg" fill="none" height="1080" viewBox="0 0 1920 1080" width="1920">
<path d="M1920 0H0V1080H1920V0Z" fill="#48434A"/>
<path d="M427.78 280.25C427.78 283.29 425.32 285.75 422.28 285.75H305.97C293.18 285.75 281.16 290.73 272.12 299.77L254.44 317.45C243.32 328.57 228.53 334.69 212.81 334.69H103.33C90.54 334.69 78.52 339.67 69.48 348.72L15.48 402.71C10.88 407.31 5.66 411.05 0 413.85V401.2C2.75 399.4 5.33 397.31 7.71 394.93L61.7 340.94C72.82 329.82 87.6 323.69 103.33 323.69H212.81C225.6 323.69 237.62 318.71 246.66 309.67L264.34 291.99C275.46 280.87 290.25 274.75 305.97 274.75H422.28C425.32 274.75 427.78 277.21 427.78 280.25Z" fill="#38333A"/>
<path d="M427.78 799.61C427.78 802.64 425.32 805.11 422.28 805.11H362.81C347.09 805.11 332.3 798.98 321.18 787.86L267.19 733.87C258.14 724.83 246.12 719.85 233.33 719.85H124.4C108.67 719.85 93.89 713.72 82.77 702.6L65.09 684.92C56.05 675.88 44.02 670.9 31.24 670.9H0V659.9H31.24C46.96 659.9 61.75 666.03 72.87 677.15L90.55 694.83C99.59 703.87 111.61 708.85 124.4 708.85H233.33C249.06 708.85 263.84 714.97 274.96 726.09L328.96 780.08C338 789.13 350.02 794.11 362.81 794.11H422.28C425.32 794.11 427.78 796.57 427.78 799.61Z" fill="#38333A"/>
<path d="M303.57 401.82C303.57 404.61 301.5 406.91 298.8 407.27C298.56 407.3 298.32 407.32 298.07 407.32H183.01C170.22 407.32 158.2 412.3 149.16 421.35L113.06 457.44C101.94 468.56 87.15 474.69 71.43 474.69H0V463.69H71.43C84.21 463.69 96.24 458.71 105.28 449.67L141.38 413.57C152.5 402.45 167.28 396.32 183.01 396.32H298.07C298.32 396.32 298.56 396.34 298.8 396.37C301.5 396.73 303.57 399.04 303.57 401.82Z" fill="#38333A"/>
<path d="M201.56 629.18C201.56 631.97 199.49 634.27 196.79 634.63C196.55 634.66 196.31 634.68 196.06 634.68H97.04C85.13 634.68 73.6 628.15 65.4 616.76L39.42 580.66C33.22 572.06 25.16 567.32 16.71 567.32H0V556.32H16.71C28.61 556.32 40.14 562.85 48.34 574.24L74.33 610.34C80.53 618.94 88.59 623.68 97.04 623.68H196.06C196.31 623.68 196.55 623.7 196.79 623.73C199.49 624.09 201.56 626.4 201.56 629.18Z" fill="#38333A"/>
<path d="M351.99 515.5C351.99 518.29 349.92 520.59 347.22 520.95C346.98 520.98 346.74 521 346.49 521H0V510H346.49C346.74 510 346.98 510.02 347.22 510.05C349.92 510.41 351.99 512.72 351.99 515.5Z" fill="#38333A"/>
<path d="M429.26 301.27C440.792 301.27 450.14 291.921 450.14 280.39C450.14 268.858 440.792 259.51 429.26 259.51C417.728 259.51 408.38 268.858 408.38 280.39C408.38 291.921 417.728 301.27 429.26 301.27Z" fill="#48434A"/>
<path d="M429.26 254.02C416.66 254.02 406.09 262.91 403.51 274.75C403.1 276.57 402.89 278.45 402.89 280.39C402.89 282.23 403.08 284.02 403.44 285.75C405.92 297.74 416.56 306.77 429.26 306.77C443.81 306.77 455.64 294.94 455.64 280.39C455.64 265.85 443.81 254.02 429.26 254.02ZM429.26 295.77C422.67 295.77 417.03 291.6 414.85 285.75C414.23 284.08 413.89 282.28 413.89 280.39C413.89 278.4 414.27 276.5 414.96 274.75C417.21 269.05 422.77 265.02 429.26 265.02C437.74 265.02 444.64 271.91 444.64 280.39C444.64 288.87 437.74 295.77 429.26 295.77Z" fill="#38333A"/>
<path d="M367.37 536.379C378.902 536.379 388.25 527.031 388.25 515.499C388.25 503.967 378.902 494.619 367.37 494.619C355.838 494.619 346.49 503.967 346.49 515.499C346.49 527.031 355.838 536.379 367.37 536.379Z" fill="#48434A"/>
<path d="M367.37 489.129C354.72 489.129 344.11 498.089 341.57 509.999C341.19 511.769 340.99 513.609 340.99 515.499C340.99 517.389 341.19 519.229 341.57 520.999C344.11 532.919 354.71 541.879 367.37 541.879C381.91 541.879 393.75 530.049 393.75 515.499C393.75 500.959 381.91 489.129 367.37 489.129ZM367.37 530.879C358.89 530.879 351.99 523.979 351.99 515.499C351.99 507.019 358.89 500.129 367.37 500.129C375.85 500.129 382.75 507.019 382.75 515.499C382.75 523.979 375.85 530.879 367.37 530.879Z" fill="#38333A"/>
<path d="M318.95 422.699C330.482 422.699 339.83 413.351 339.83 401.819C339.83 390.288 330.482 380.939 318.95 380.939C307.418 380.939 298.07 390.288 298.07 401.819C298.07 413.351 307.418 422.699 318.95 422.699Z" fill="#48434A"/>
<path d="M318.95 375.449C306.3 375.449 295.69 384.409 293.15 396.319C292.77 398.089 292.57 399.929 292.57 401.819C292.57 403.709 292.77 405.549 293.15 407.319C295.69 419.239 306.29 428.199 318.95 428.199C333.49 428.199 345.33 416.369 345.33 401.819C345.33 387.279 333.49 375.449 318.95 375.449ZM318.95 417.199C310.47 417.199 303.57 410.299 303.57 401.819C303.57 393.339 310.47 386.449 318.95 386.449C327.43 386.449 334.33 393.339 334.33 401.819C334.33 410.299 327.43 417.199 318.95 417.199Z" fill="#38333A"/>
<path d="M443.16 820.49C454.692 820.49 464.04 811.142 464.04 799.61C464.04 788.079 454.692 778.73 443.16 778.73C431.628 778.73 422.28 788.079 422.28 799.61C422.28 811.142 431.628 820.49 443.16 820.49Z" fill="#48434A"/>
<path d="M443.16 773.23C430.5 773.23 419.89 782.19 417.36 794.11C416.98 795.88 416.78 797.72 416.78 799.61C416.78 801.5 416.98 803.34 417.36 805.11C419.89 817.02 430.5 825.99 443.16 825.99C457.7 825.99 469.53 814.15 469.53 799.61C469.53 785.06 457.7 773.23 443.16 773.23ZM443.16 814.99C434.68 814.99 427.78 808.09 427.78 799.61C427.78 791.13 434.68 784.23 443.16 784.23C451.64 784.23 458.53 791.13 458.53 799.61C458.53 808.09 451.64 814.99 443.16 814.99Z" fill="#38333A"/>
<path d="M216.94 650.059C228.472 650.059 237.82 640.711 237.82 629.179C237.82 617.647 228.472 608.299 216.94 608.299C205.408 608.299 196.06 617.647 196.06 629.179C196.06 640.711 205.408 650.059 216.94 650.059Z" fill="#48434A"/>
<path d="M216.94 602.809C204.28 602.809 193.67 611.769 191.14 623.679C190.76 625.449 190.56 627.289 190.56 629.179C190.56 631.069 190.76 632.909 191.14 634.679C193.67 646.599 204.28 655.559 216.94 655.559C231.48 655.559 243.32 643.729 243.32 629.179C243.32 614.639 231.48 602.809 216.94 602.809ZM216.94 644.559C208.46 644.559 201.56 637.659 201.56 629.179C201.56 620.699 208.46 613.809 216.94 613.809C225.42 613.809 232.32 620.699 232.32 629.179C232.32 637.659 225.42 644.559 216.94 644.559Z" fill="#38333A"/>
<path d="M1920 401.2V413.85C1914.34 411.05 1909.12 407.31 1904.52 402.71L1850.52 348.72C1841.48 339.67 1829.46 334.69 1816.67 334.69H1707.19C1691.47 334.69 1676.68 328.57 1665.56 317.45L1647.88 299.77C1638.84 290.73 1626.82 285.75 1614.03 285.75H1497.72C1494.68 285.75 1492.22 283.29 1492.22 280.25C1492.22 277.21 1494.68 274.75 1497.72 274.75H1614.03C1629.75 274.75 1644.54 280.87 1655.66 291.99L1673.34 309.67C1682.38 318.71 1694.4 323.69 1707.19 323.69H1816.67C1832.39 323.69 1847.18 329.82 1858.3 340.94L1912.29 394.93C1914.67 397.31 1917.25 399.4 1920 401.2Z" fill="#38333A"/>
<path d="M1920 659.9V670.9H1888.76C1875.98 670.9 1863.95 675.88 1854.91 684.92L1837.23 702.6C1826.11 713.72 1811.33 719.85 1795.6 719.85H1686.67C1673.88 719.85 1661.86 724.83 1652.81 733.87L1598.82 787.86C1587.7 798.98 1572.91 805.11 1557.19 805.11H1497.72C1497.47 805.11 1497.23 805.09 1497 805.06C1494.3 804.71 1492.22 802.4 1492.22 799.61C1492.22 796.82 1494.3 794.51 1497 794.16C1497.23 794.13 1497.47 794.11 1497.72 794.11H1557.19C1569.98 794.11 1582 789.13 1591.04 780.08L1645.04 726.09C1656.16 714.97 1670.94 708.85 1686.67 708.85H1795.6C1808.39 708.85 1820.41 703.87 1829.46 694.83L1847.13 677.15C1858.25 666.03 1873.04 659.9 1888.76 659.9H1920Z" fill="#38333A"/>
<path d="M1920 463.69V474.69H1848.57C1832.85 474.69 1818.06 468.56 1806.94 457.44L1770.84 421.35C1761.8 412.3 1749.78 407.32 1736.99 407.32H1621.93C1621.68 407.32 1621.44 407.3 1621.2 407.27C1618.5 406.91 1616.43 404.61 1616.43 401.82C1616.43 399.04 1618.5 396.73 1621.2 396.37C1621.44 396.34 1621.68 396.32 1621.93 396.32H1736.99C1752.71 396.32 1767.5 402.45 1778.62 413.57L1814.72 449.67C1823.76 458.71 1835.79 463.69 1848.57 463.69H1920Z" fill="#38333A"/>
<path d="M1920 556.32V567.32H1903.29C1894.84 567.32 1886.78 572.06 1880.58 580.66L1854.6 616.76C1846.4 628.15 1834.87 634.68 1822.96 634.68H1723.94C1723.69 634.68 1723.45 634.66 1723.21 634.63C1720.51 634.27 1718.44 631.97 1718.44 629.18C1718.44 626.4 1720.51 624.09 1723.21 623.73C1723.45 623.7 1723.69 623.68 1723.94 623.68H1822.96C1831.41 623.68 1839.47 618.94 1845.67 610.34L1871.66 574.24C1879.86 562.85 1891.39 556.32 1903.29 556.32H1920Z" fill="#38333A"/>
<path d="M1920 510V521H1573.51C1573.26 521 1573.02 520.98 1572.78 520.95C1570.08 520.59 1568.01 518.29 1568.01 515.5C1568.01 512.72 1570.08 510.41 1572.78 510.05C1573.02 510.02 1573.26 510 1573.51 510H1920Z" fill="#38333A"/>
<path d="M1490.74 301.27C1502.27 301.27 1511.62 291.921 1511.62 280.39C1511.62 268.858 1502.27 259.51 1490.74 259.51C1479.21 259.51 1469.86 268.858 1469.86 280.39C1469.86 291.921 1479.21 301.27 1490.74 301.27Z" fill="#48434A"/>
<path d="M1516.49 274.75C1513.91 262.91 1503.34 254.02 1490.74 254.02C1476.19 254.02 1464.36 265.85 1464.36 280.39C1464.36 294.94 1476.19 306.77 1490.74 306.77C1503.44 306.77 1514.08 297.74 1516.56 285.75C1516.92 284.02 1517.11 282.23 1517.11 280.39C1517.11 278.45 1516.9 276.57 1516.49 274.75ZM1490.74 295.77C1482.26 295.77 1475.36 288.87 1475.36 280.39C1475.36 271.91 1482.26 265.02 1490.74 265.02C1497.23 265.02 1502.79 269.05 1505.04 274.75C1505.73 276.5 1506.11 278.4 1506.11 280.39C1506.11 282.28 1505.77 284.08 1505.15 285.75C1502.97 291.6 1497.33 295.77 1490.74 295.77Z" fill="#38333A"/>
<path d="M1552.63 536.379C1564.16 536.379 1573.51 527.031 1573.51 515.499C1573.51 503.967 1564.16 494.619 1552.63 494.619C1541.1 494.619 1531.75 503.967 1531.75 515.499C1531.75 527.031 1541.1 536.379 1552.63 536.379Z" fill="#48434A"/>
<path d="M1578.43 509.999C1575.89 498.089 1565.28 489.129 1552.63 489.129C1538.09 489.129 1526.25 500.959 1526.25 515.499C1526.25 530.049 1538.09 541.879 1552.63 541.879C1565.29 541.879 1575.89 532.919 1578.43 520.999C1578.81 519.229 1579.01 517.389 1579.01 515.499C1579.01 513.609 1578.81 511.769 1578.43 509.999ZM1552.63 530.879C1544.15 530.879 1537.25 523.979 1537.25 515.499C1537.25 507.019 1544.15 500.129 1552.63 500.129C1561.11 500.129 1568.01 507.019 1568.01 515.499C1568.01 523.979 1561.11 530.879 1552.63 530.879Z" fill="#38333A"/>
<path d="M1601.05 422.699C1612.58 422.699 1621.93 413.351 1621.93 401.819C1621.93 390.288 1612.58 380.939 1601.05 380.939C1589.52 380.939 1580.17 390.288 1580.17 401.819C1580.17 413.351 1589.52 422.699 1601.05 422.699Z" fill="#48434A"/>
<path d="M1626.85 396.319C1624.31 384.409 1613.7 375.449 1601.05 375.449C1586.5 375.449 1574.67 387.279 1574.67 401.819C1574.67 416.369 1586.5 428.199 1601.05 428.199C1613.71 428.199 1624.31 419.239 1626.85 407.319C1627.23 405.549 1627.43 403.709 1627.43 401.819C1627.43 399.929 1627.23 398.089 1626.85 396.319ZM1601.05 417.199C1592.57 417.199 1585.67 410.299 1585.67 401.819C1585.67 393.339 1592.57 386.449 1601.05 386.449C1609.53 386.449 1616.43 393.339 1616.43 401.819C1616.43 410.299 1609.53 417.199 1601.05 417.199Z" fill="#38333A"/>
<path d="M1476.84 820.49C1488.37 820.49 1497.72 811.142 1497.72 799.61C1497.72 788.079 1488.37 778.73 1476.84 778.73C1465.31 778.73 1455.96 788.079 1455.96 799.61C1455.96 811.142 1465.31 820.49 1476.84 820.49Z" fill="#48434A"/>
<path d="M1502.64 794.11C1500.11 782.19 1489.5 773.23 1476.84 773.23C1462.3 773.23 1450.47 785.06 1450.47 799.61C1450.47 814.15 1462.3 825.99 1476.84 825.99C1489.5 825.99 1500.11 817.02 1502.64 805.11C1503.02 803.34 1503.22 801.5 1503.22 799.61C1503.22 797.72 1503.02 795.88 1502.64 794.11ZM1476.84 814.99C1468.36 814.99 1461.47 808.09 1461.47 799.61C1461.47 791.13 1468.36 784.23 1476.84 784.23C1485.32 784.23 1492.22 791.13 1492.22 799.61C1492.22 808.09 1485.32 814.99 1476.84 814.99Z" fill="#38333A"/>
<path d="M1703.06 650.059C1714.59 650.059 1723.94 640.711 1723.94 629.179C1723.94 617.647 1714.59 608.299 1703.06 608.299C1691.53 608.299 1682.18 617.647 1682.18 629.179C1682.18 640.711 1691.53 650.059 1703.06 650.059Z" fill="#48434A"/>
<path d="M1728.86 623.679C1726.33 611.769 1715.72 602.809 1703.06 602.809C1688.52 602.809 1676.68 614.639 1676.68 629.179C1676.68 643.729 1688.52 655.559 1703.06 655.559C1715.72 655.559 1726.33 646.599 1728.86 634.679C1729.24 632.909 1729.44 631.069 1729.44 629.179C1729.44 627.289 1729.24 625.449 1728.86 623.679ZM1703.06 644.559C1694.58 644.559 1687.68 637.659 1687.68 629.179C1687.68 620.699 1694.58 613.809 1703.06 613.809C1711.54 613.809 1718.44 620.699 1718.44 629.179C1718.44 637.659 1711.54 644.559 1703.06 644.559Z" fill="#38333A"/>
</svg>